# Blender v2.93.2 OBJ File: 'newboard.blend'
# www.blender.org
mtllib AleBoard.mtl
o Cube
v -0.004106 0.476760 8.343833
v -0.004106 0.697789 8.343833
v -8.343833 0.476760 0.004106
v -8.343833 0.697789 0.004106
v 8.343833 0.476760 -0.004106
v 8.343833 0.697789 -0.004106
v 0.004106 0.476760 -8.343833
v 0.004106 0.697789 -8.343833
vt 0.000082 -1.997720
vt 0.999918 -1.997720
vt 0.999918 -0.997883
vt 0.000082 -0.997883
vt 0.999918 0.001953
vt 0.000082 0.001953
vt 0.999918 1.001790
vt 0.000082 1.001790
vt 0.999918 2.001626
vt 0.000082 2.001626
vt -0.999755 0.001953
vt -0.999755 1.001790
vt 1.999755 0.001953
vt 1.999755 1.001790
vn -0.7071 0.0000 0.7071
vn -0.7071 0.0000 -0.7071
vn 0.7071 0.0000 -0.7071
vn 0.7071 0.0000 0.7071
vn 0.0000 -1.0000 0.0000
vn 0.0000 1.0000 0.0000
usemtl Chessy
s off
f 1/1/1 2/2/1 4/3/1 3/4/1
f 3/4/2 4/3/2 8/5/2 7/6/2
f 7/6/3 8/5/3 6/7/3 5/8/3
f 5/8/4 6/7/4 2/9/4 1/10/4
f 3/11/5 7/6/5 5/8/5 1/12/5
f 8/5/6 4/13/6 2/14/6 6/7/6
