# Created with Anim8or 0.97d beta
# Object "Board":

mtllib Board.mtl

# Shape "mesh01":
g mesh01
# No. points 24:
v 50.0018 0 50.0018
v -50 0 50
v 50.0018 0 50.0018
v -50 0 50
v 50 0 -50
v -50.0018 0 -50.0018
v 50 0 -50
v -50.0018 0 -50.0018
v 50.0018 -3.6163 50.0018
v -50 -3.6163 50
v -50.0018 -3.6163 -50.0018
v 50 -3.6163 -50
v 53.3795 -3.6163 53.3795
v -53.3778 -3.6163 53.3778
v -53.3795 -3.6163 -53.3795
v 53.3778 -3.6163 -53.3778
v 51.9056 0 -51.9056
v 51.9073 0 51.9073
v 53.3795 -1.57619 53.3795
v 53.3778 -1.57619 -53.3778
v -51.9056 0 51.9056
v -53.3778 -1.57619 53.3778
v -51.9073 0 -51.9073
v -53.3795 -1.57619 -53.3795

# No. normals 466:
vn 0 1 0
vn 1 0 0
vn 1 0 0
vn 1 0 0
vn 1 0 0
vn 0 -1 0
vn 0 -1 0
vn 0 -1 0
vn 0 -1 0
vn 0 -1 0
vn 0 1 0
vn 1 0 -0.00002
vn 0 1 0
vn -0.00002 0.00001 1
vn 0 1 0
vn -1 0 0.00002
vn 0 1 0
vn 0.00002 -0.00001 -1
vn 0.73079 0.68260 -0.00001
vn -0.00001 0.68260 0.73079
vn -0.73079 0.68260 0.00001
vn 0.00001 0.68258 -0.73081
vn 1 0 0
vn 0 1 0
vn 1 0 0
vn 1 0 0
vn 0 1 0
vn 1 0 0
vn 0 1 0
vn 1 0 0
vn 1 0 0
vn 0 1 0
vn 1 0 0
vn 1 0 0
vn 1 0 0
vn 0 1 0
vn 1 0 0
vn 1 0 0
vn 0 1 0
vn 1 0 0
vn 0 1 0
vn 1 0 0
vn 1 0 0
vn 0 1 0
vn 1 0 0
vn 1 0 0
vn 0 -1 0
vn 0 -1 0
vn 0 -1 0
vn 0 -1 0
vn 0 -1 0
vn -0.00002 0.00001 1
vn 1 0 -0.00002
vn 0 -1 0
vn -1 0 0.00002
vn -0.00002 0.00001 1
vn 0 -1 0
vn 0.00002 -0.00001 -1
vn -1 0 0.00002
vn 0 -1 0
vn 0.00002 -0.00001 -1
vn 1 0 -0.00002
vn 0 1 0
vn 0.00001 0.68258 -0.73081
vn 0.73079 0.68260 -0.00001
vn 0 1 0
vn -0.00001 0.68260 0.73079
vn 0.73079 0.68260 -0.00001
vn 0.93027 0.36689 -0.00001
vn -0.00001 0.36689 0.93026
vn 0.93027 0.36689 -0.00001
vn 0.00001 0.36687 -0.93027
vn 0 1 0
vn -0.73079 0.68260 0.00001
vn -0.00001 0.68260 0.73079
vn -0.00001 0.36689 0.93026
vn -0.93027 0.36689 0.00001
vn 0 1 0
vn 0.00001 0.68258 -0.73081
vn -0.73079 0.68260 0.00001
vn -0.93027 0.36689 0.00001
vn 0.00001 0.36687 -0.93027
vn -0.00001 0.68260 0.73079
vn 0.00001 0.68258 -0.73081
vn -0.00002 0.00001 1
vn 0.00002 -0.00001 -1
vn -0.00001 0.68260 0.73079
vn 0.00001 0.68258 -0.73081
vn -0.00002 0.00001 1
vn 0.00002 -0.00001 -1
vn -0.00001 0.68260 0.73079
vn 0.00001 0.68258 -0.73081
vn -0.00002 0.00001 1
vn 0.00002 -0.00001 -1
vn -0.00001 0.68260 0.73079
vn 0.00001 0.68258 -0.73081
vn -0.00002 0.00001 1
vn 0.00002 -0.00001 -1
vn -0.00001 0.68260 0.73079
vn 0.00001 0.68258 -0.73081
vn -0.00002 0.00001 1
vn 0.00002 -0.00001 -1
vn -0.00002 0.00001 1
vn 0.00002 -0.00001 -1
vn -0.00002 0.00001 1
vn 0.00002 -0.00001 -1
vn -0.00002 0.00001 1
vn 0.00002 -0.00001 -1
vn -0.00002 0.00001 1
vn 0.00002 -0.00001 -1
vn 0.00001 0.68258 -0.73081
vn 0.00001 0.68258 -0.73081
vn 0.00001 0.68258 -0.73081
vn 0.00001 0.68258 -0.73081
vn 0.00002 -0.00001 -1
vn 0.00001 0.68258 -0.73081
vn 0.00002 -0.00001 -1
vn 0.00001 0.68258 -0.73081
vn 0.00002 -0.00001 -1
vn 0.00001 0.68258 -0.73081
vn 0.00002 -0.00001 -1
vn 0.00001 0.68258 -0.73081
vn 0.00002 -0.00001 -1
vn 0.00001 0.68258 -0.73081
vn 0.00002 -0.00001 -1
vn 0.00002 -0.00001 -1
vn 0.00002 -0.00001 -1
vn 0.00002 -0.00001 -1
vn 0.00002 -0.00001 -1
vn -0.73079 0.68260 0.00001
vn -1 0 0.00002
vn 0.73079 0.68260 -0.00001
vn -0.73079 0.68260 0.00001
vn 1 0 -0.00002
vn -1 0 0.00002
vn 0 1 0
vn 0 -1 0
vn 0 1 0
vn 0 -1 0
vn 0 -1 0
vn -0.00002 0.00001 1
vn -0.00001 0.68260 0.73079
vn 0 -1 0
vn 0 -1 0
vn -0.00002 0.00001 1
vn 0.00001 0.68258 -0.73081
vn 0.00002 -0.00001 -1
vn -0.73079 0.68260 0.00001
vn -1 0 0.00002
vn 0.73079 0.68260 -0.00001
vn 1 0 -0.00002
vn 0 -1 0
vn 0 1 0
vn 0.00001 0.68258 -0.73081
vn 0 1 0
vn 1 0 0
vn 0 -1 0
vn 0 -1 0
vn 0 1 0
vn 0 -1 0
vn 0 1 0
vn 0 1 0
vn 1 0 0
vn 0 -1 0
vn 0 -1 0
vn 0 1 0
vn 0 1 0
vn 1 0 0
vn 0 -1 0
vn 0 -1 0
vn 0 1 0
vn 0 -1 0
vn 0 1 0
vn 0 1 0
vn 0 -1 0
vn 0 1 0
vn 0 -1 0
vn 0 1 0
vn 0 -1 0
vn 0 1 0
vn 0 -1 0
vn 0 1 0
vn 0 -1 0
vn 0 1 0
vn 0 -1 0
vn 0 1 0
vn 0 -1 0
vn 0 1 0
vn 0 -1 0
vn 0 1 0
vn 0 -1 0
vn 0 1 0
vn 0 -1 0
vn 0 1 0
vn 0 -1 0
vn 0 1 0
vn 0 -1 0
vn 0 1 0
vn 0 -1 0
vn 0 1 0
vn 0 -1 0
vn 0 1 0
vn 0 -1 0
vn 0 1 0
vn 0 -1 0
vn 0 1 0
vn 0 -1 0
vn 0 1 0
vn 0 -1 0
vn 0 1 0
vn 0 -1 0
vn 0 1 0
vn 0 -1 0
vn 0 1 0
vn 0 -1 0
vn 0 1 0
vn 1 0 0
vn 0 -1 0
vn 0 -1 0
vn 0 1 0
vn 0 1 0
vn 1 0 0
vn 0 -1 0
vn 0 -1 0
vn 0 1 0
vn 0 1 0
vn 1 0 0
vn 0 -1 0
vn 0 -1 0
vn 0 1 0
vn 0 1 0
vn 1 0 0
vn 0 -1 0
vn 0 -1 0
vn 0 1 0
vn 0 1 0
vn 1 0 0
vn 0 -1 0
vn 0 -1 0
vn 0 1 0
vn 0 1 0
vn 1 0 0
vn 0 -1 0
vn 0 -1 0
vn 0 1 0
vn 0 -1 0
vn 0 1 0
vn 0 -1 0
vn 0 1 0
vn 0 -1 0
vn 0 1 0
vn 0 -1 0
vn 0 1 0
vn 0 -1 0
vn 0 1 0
vn 0 -1 0
vn 0 1 0
vn 0 -1 0
vn 0 1 0
vn 0 -1 0
vn 0 1 0
vn 0 -1 0
vn 0 1 0
vn 0 -1 0
vn 0 1 0
vn 0 -1 0
vn 0 1 0
vn 0 -1 0
vn 0 1 0
vn 0 -1 0
vn 0 1 0
vn 0 -1 0
vn 0 1 0
vn 0 -1 0
vn 0 1 0
vn 0 -1 0
vn 0 1 0
vn 0 -1 0
vn 0 1 0
vn 0 -1 0
vn 0 1 0
vn 0 -1 0
vn 0 1 0
vn 0 -1 0
vn 0 1 0
vn 0 -1 0
vn 0 1 0
vn 0 1 0
vn 1 0 0
vn 0 -1 0
vn 0 -1 0
vn 0 1 0
vn 0 1 0
vn 1 0 0
vn 0 -1 0
vn 0 -1 0
vn 0 1 0
vn 0 1 0
vn 1 0 0
vn 0 -1 0
vn 0 -1 0
vn 0 1 0
vn 0 1 0
vn 1 0 0
vn 0 -1 0
vn 0 -1 0
vn 0 1 0
vn 0 1 0
vn 0 -1 0
vn 0 1 0
vn 0 -1 0
vn 0 1 0
vn 0 -1 0
vn 0 1 0
vn 0 -1 0
vn 0 1 0
vn 0 -1 0
vn 0 1 0
vn 0 -1 0
vn 0 1 0
vn 0 -1 0
vn 0 1 0
vn 0 -1 0
vn 0 1 0
vn 0 -1 0
vn 0 1 0
vn 0 -1 0
vn 0 1 0
vn 0 -1 0
vn 0 1 0
vn 0 -1 0
vn 0 1 0
vn 0 -1 0
vn 0 1 0
vn 0 -1 0
vn 0 1 0
vn 0 -1 0
vn 0 1 0
vn 0 -1 0
vn 0 1 0
vn 0 -1 0
vn 0 1 0
vn 0 -1 0
vn 0 1 0
vn 0 -1 0
vn 0 1 0
vn 0 -1 0
vn 0 1 0
vn 0 -1 0
vn 0 1 0
vn 0 -1 0
vn 0 1 0
vn 0 -1 0
vn 0 1 0
vn 0 -1 0
vn 0 1 0
vn 0 -1 0
vn 0 1 0
vn 0 -1 0
vn 0 1 0
vn 0 -1 0
vn 0 1 0
vn 0 -1 0
vn 0 1 0
vn 0 -1 0
vn 0 1 0
vn 0 -1 0
vn 0 1 0
vn 0 -1 0
vn 0 1 0
vn 0 -1 0
vn 0 1 0
vn 0 -1 0
vn 0 1 0
vn 0 -1 0
vn 0 1 0
vn 0 -1 0
vn 0 1 0
vn 0 -1 0
vn 0 1 0
vn 0 -1 0
vn 0 1 0
vn 0 -1 0
vn 0 1 0
vn 0 -1 0
vn 0 1 0
vn 0 -1 0
vn 0 1 0
vn 0 -1 0
vn 0 1 0
vn 0 -1 0
vn 0 1 0
vn 0 -1 0
vn 0 1 0
vn 0 -1 0
vn 0 1 0
vn 0 -1 0
vn 0 1 0
vn 0 -1 0
vn 0 1 0
vn 0 -1 0
vn 0 1 0
vn 0 -1 0
vn 0 1 0
vn 0 -1 0
vn 0 1 0
vn 0 -1 0
vn 0 1 0
vn 0 -1 0
vn 0 1 0
vn 0 -1 0
vn 0 1 0
vn 0 -1 0
vn 0 1 0
vn 0 -1 0
vn 0 1 0
vn 0 -1 0
vn 0 1 0
vn 0 -1 0
vn 0 1 0
vn 0 -1 0
vn 0 1 0
vn 0 -1 0
vn 0 1 0
vn 0 -1 0
vn 0 1 0
vn 0 -1 0
vn 0 1 0
vn 0 -1 0
vn 0 1 0
vn 0 -1 0
vn 0 1 0
vn 0 -1 0
vn 0 1 0
vn 1 0 0
vn 0 -1 0
vn 0 -1 0
vn 0 1 0
vn 0 1 0
vn 1 0 0
vn 0 -1 0
vn 0 -1 0
vn 0 1 0
vn 0 1 0
vn 1 0 0
vn 0 -1 0
vn 0 -1 0
vn 0 1 0
vn 0 1 0
vn 1 0 0
vn 0 -1 0
vn 0 -1 0
vn 0 1 0
vn 0 1 0
vn 1 0 0
vn 0 -1 0
vn 0 -1 0
vn 0 1 0
vn 0 -1 0
vn 0 1 0
vn 0 1 0
vn 0 -1 0
vn 0 1 0
vn 0 -1 0
vn 0 1 0
vn 0 -1 0

# No. texture coordinates 52:
vt 0.03164 0.96836
vt 0.96834 0.96834
vt 0.96836 0.03164
vt 0.03166 0.03166
vt 0.96834 0.96834
vt 0.96836 0.03164
vt 0.03166 0.03166
vt 0.03164 0.96836
vt 0.03164 0.96836
vt 0.03166 0.03166
vt 0.96836 0.03164
vt 0.96834 0.96834
vt 1 0
vt 0.999984 0.999984
vt 0.00002 0.00002
vt 0 1
vt -0.03414 0.48222
vt -0.03414 0.50228
vt 1.02584 0.50228
vt 1.02584 0.48222
vt 1.02582 0.48222
vt 1.02582 0.50228
vt -0.03416 0.50228
vt -0.03416 0.48222
vt 1.01122 0.51778
vt -0.01952 0.51778
vt 1.01121 0.51778
vt -0.01954 0.51778
vt -0.02792 0.48222
vt -0.02792 0.50228
vt 1.03206 0.50228
vt 1.03206 0.48222
vt 1.03208 0.48222
vt 1.03208 0.50228
vt -0.02790 0.50228
vt -0.02790 0.48222
vt -0.01330 0.51778
vt 1.01745 0.51778
vt -0.01329 0.51778
vt 1.01746 0.51778
vt -0.17493 1.94971
vt 1.00663 1.94968
vt 1.02915 1.97667
vt -0.19744 1.97669
vt -0.17491 0.53341
vt -0.19742 0.50642
vt 1.00666 0.53338
vt 1.02917 0.50639
vt 0.999108 0.00690
vt 0.99909 0.98897
vt 0.00506 0.98898
vt 0.00507 0.00692

# No. faces 22:

usemtl Glass

f 4/52/32 3/51/29 7/50/41 8/49/44

usemtl Wood

f 3/3/31 1/6/23 5/5/35 7/2/43
f 6/8/38 2/7/26 4/4/34 8/1/46
f 2/7/28 1/6/25 3/3/30 4/4/33
f 7/2/42 5/5/37 6/8/40 8/1/45
f 12/12/50 9/11/47 10/10/48 11/9/49
f 16/14/60 13/13/51 9/11/47 12/12/50
f 13/13/51 14/15/54 10/10/48 9/11/47
f 14/15/54 15/16/57 11/9/49 10/10/48
f 15/16/57 16/14/60 12/12/50 11/9/49
f 18/44/66 17/43/63 5/42/36 1/41/24
f 16/32/62 20/31/71 19/30/69 13/29/53
f 21/46/73 18/44/66 1/41/24 2/45/27
f 13/20/52 19/19/70 22/18/76 14/17/56
f 23/48/78 21/46/73 2/45/27 6/47/39
f 14/36/55 22/35/77 24/34/81 15/33/59
f 17/43/63 23/48/78 6/47/39 5/42/36
f 15/24/58 24/23/82 20/22/72 16/21/61
f 19/30/69 20/31/71 17/38/65 18/37/68
f 21/26/75 22/18/76 19/19/70 18/25/67
f 23/40/80 24/34/81 22/35/77 21/39/74
f 20/22/72 24/23/82 23/28/79 17/27/64

# End of Object "Board"
