# Blender v2.93.2 OBJ File: 'newboard.blend'
# www.blender.org
mtllib NewBoardResized.mtl
o Board
v -0.002319 0.678949 8.346153
v 8.346455 0.678949 -0.002268
v 0.002319 0.678951 -8.346153
v -8.346455 0.678951 0.002268
v 8.346455 0.678949 -0.002268
v 0.002319 0.678951 -8.346153
v -8.346455 0.678951 0.002268
v -0.002319 0.678949 8.346153
v 0.002319 0.105557 -8.346153
v 8.346455 0.105555 -0.002268
v -0.002319 0.105555 8.346153
v -8.346455 0.105557 0.002268
v 0.002476 0.105557 -8.909986
v 8.910271 0.105555 -0.002422
v -0.002476 0.105555 8.909986
v -8.910271 0.105557 0.002422
v 8.664526 0.678949 -0.002355
v 0.002408 0.678951 -8.664243
v 0.002476 0.429033 -8.909986
v 8.910271 0.429031 -0.002422
v -0.002408 0.678949 8.664243
v -0.002476 0.429031 8.909986
v -8.664526 0.678951 0.002355
v -8.910271 0.429033 0.002422
vt 0.005070 0.006920
vt 0.005060 0.988980
vt 0.999090 0.988970
vt 0.999108 0.006900
vt 0.968360 0.031640
vt 0.968360 0.031640
vt 0.968340 0.968340
vt 0.968340 0.968340
vt 0.031640 0.968360
vt 0.031660 0.031660
vt 0.031660 0.031660
vt 0.031640 0.968360
vt 0.968340 0.968340
vt 0.968360 0.031640
vt 0.031660 0.031660
vt 0.031640 0.968360
vt 0.999984 0.999984
vt 1.000000 0.000000
vt 0.000020 0.000020
vt 0.000000 1.000000
vt -0.197440 1.976690
vt 1.029150 1.976670
vt 1.006630 1.949680
vt -0.174930 1.949710
vt 1.032060 0.482220
vt 1.032060 0.502280
vt -0.027920 0.502280
vt -0.027920 0.482220
vt -0.197420 0.506420
vt -0.174910 0.533410
vt 1.025840 0.482220
vt 1.025840 0.502280
vt -0.034140 0.502280
vt -0.034140 0.482220
vt 1.029170 0.506390
vt 1.006660 0.533380
vt -0.027900 0.482220
vt -0.027900 0.502280
vt 1.032080 0.502280
vt 1.032080 0.482220
vt -0.034160 0.482220
vt -0.034160 0.502280
vt 1.025820 0.502280
vt 1.025820 0.482220
vt 1.017450 0.517780
vt -0.013300 0.517780
vt -0.019520 0.517780
vt 1.011220 0.517780
vt 1.017460 0.517780
vt -0.013290 0.517780
vt -0.019540 0.517780
vt 1.011210 0.517780
vn 0.0000 1.0000 0.0000
vn -0.3826 0.0000 -0.9239
vn 0.5001 0.4998 -0.7071
vn -0.4998 -0.5002 -0.7071
vn 0.3827 -0.0000 -0.9239
vn 0.0000 0.0000 -1.0000
vn -0.0000 -1.0000 -0.0000
vn 0.7071 0.0000 -0.7071
vn 0.6628 0.3263 -0.6739
vn 0.6739 0.3263 -0.6628
vn 0.7071 0.0000 0.7071
vn 0.6739 0.3262 0.6629
vn 0.6629 0.3262 0.6739
vn -0.7071 0.0000 0.7071
vn -0.6628 0.3263 0.6739
vn -0.6739 0.3263 0.6628
vn -0.7071 0.0000 -0.7071
vn -0.6739 0.3261 -0.6629
vn -0.6629 0.3261 -0.6740
vn 0.5805 0.5710 -0.5805
vn 0.5806 0.5708 0.5806
vn -0.5805 0.5710 0.5805
vn -0.5806 0.5708 -0.5806
usemtl Glass
s 1
f 1/1/1 2/2/1 3/3/1 4/4/1
usemtl Wood
f 2/5/2 5/6/2 6/7/3 3/8/4
f 7/9/5 8/10/6 1/11/6 4/12/5
f 8/10/6 5/6/2 2/5/2 1/11/6
f 3/8/4 6/7/3 7/9/5 4/12/5
f 9/13/7 10/14/7 11/15/7 12/16/7
f 13/17/7 14/18/7 10/14/7 9/13/7
f 14/18/7 15/19/7 11/15/7 10/14/7
f 15/19/7 16/20/7 12/16/7 11/15/7
f 16/20/7 13/17/7 9/13/7 12/16/7
f 17/21/1 18/22/1 6/23/1 5/24/1
f 13/25/8 19/26/9 20/27/10 14/28/8
f 21/29/1 17/21/1 5/24/1 8/30/1
f 14/31/11 20/32/12 22/33/13 15/34/11
f 23/35/1 21/29/1 8/30/1 7/36/1
f 15/37/14 22/38/15 24/39/16 16/40/14
f 18/22/1 23/35/1 7/36/1 6/23/1
f 16/41/17 24/42/18 19/43/19 13/44/17
f 20/27/10 19/26/9 18/45/20 17/46/20
f 21/47/21 22/33/13 20/32/12 17/48/21
f 23/49/22 24/39/16 22/38/15 21/50/22
f 19/43/19 24/42/18 23/51/23 18/52/23
